<svg width="9" height="13" viewBox="0 0 9 13" fill="none" xmlns="http://www.w3.org/2000/svg">
<path d="M2.59091 8.86364V8.59091C2.59091 7.96591 2.64015 7.4678 2.73864 7.09659C2.83712 6.72538 2.98295 6.42803 3.17614 6.20455C3.36932 5.97727 3.60606 5.77273 3.88636 5.59091C4.12879 5.43182 4.3447 5.27841 4.53409 5.13068C4.72727 4.98295 4.87879 4.82576 4.98864 4.65909C5.10227 4.49242 5.15909 4.30303 5.15909 4.09091C5.15909 3.90152 5.11364 3.73485 5.02273 3.59091C4.93182 3.44697 4.80871 3.33523 4.65341 3.25568C4.49811 3.17614 4.32576 3.13636 4.13636 3.13636C3.93182 3.13636 3.74242 3.18371 3.56818 3.27841C3.39773 3.37311 3.25947 3.50379 3.15341 3.67045C3.05114 3.83712 3 4.0303 3 4.25H0.0909091C0.0984849 3.41667 0.287879 2.74053 0.659091 2.22159C1.0303 1.69886 1.52273 1.31629 2.13636 1.07386C2.75 0.827651 3.42424 0.704545 4.15909 0.704545C4.9697 0.704545 5.69318 0.823863 6.32955 1.0625C6.96591 1.29735 7.4678 1.65341 7.83523 2.13068C8.20265 2.60417 8.38636 3.19697 8.38636 3.90909C8.38636 4.36742 8.30682 4.77083 8.14773 5.11932C7.99242 5.46402 7.77462 5.76894 7.49432 6.03409C7.2178 6.29545 6.89394 6.53409 6.52273 6.75C6.25 6.90909 6.02083 7.07386 5.83523 7.24432C5.64962 7.41098 5.50947 7.60227 5.41477 7.81818C5.32008 8.0303 5.27273 8.28788 5.27273 8.59091V8.86364H2.59091ZM3.97727 12.6818C3.53788 12.6818 3.16098 12.5284 2.84659 12.2216C2.53598 11.911 2.38258 11.5341 2.38636 11.0909C2.38258 10.6591 2.53598 10.2898 2.84659 9.98295C3.16098 9.67614 3.53788 9.52273 3.97727 9.52273C4.39394 9.52273 4.76136 9.67614 5.07955 9.98295C5.40152 10.2898 5.56439 10.6591 5.56818 11.0909C5.56439 11.3864 5.48674 11.6553 5.33523 11.8977C5.1875 12.1364 4.99432 12.3277 4.75568 12.4716C4.51705 12.6117 4.25758 12.6818 3.97727 12.6818Z" fill="#3F4E65"/>
</svg>
