<?xml version="1.0" encoding="utf-8"?><svg viewBox="0 0 502.66 502.66" xmlns="http://www.w3.org/2000/svg" xmlns:xlink="http://www.w3.org/1999/xlink"><style>:root>svg{display:none}:root>svg:target{display:block}</style><svg viewBox="0 0 7 6" id="arrow" xmlns="http://www.w3.org/2000/svg"><path d="M3.5 6L.469.75H6.53L3.5 6z"/></svg><svg viewBox="0 0 41 29" id="cart" xmlns="http://www.w3.org/2000/svg"><path d="M40.651 5.786a1.223 1.223 0 00-1.046-.544h-27.85L11 3.274c-.191-.645-.451-1.196-.78-1.653-.327-.457-.676-.78-1.045-.968A4.624 4.624 0 008.21.27a3.426 3.426 0 00-.82-.1H1.77c-.355 0-.656.12-.902.362S.5 1.083.5 1.46c0 .215.055.423.164.625.11.201.267.356.472.463.205.108.417.162.635.162h5.62c.109 0 .212.013.307.04.096.027.226.141.39.343.164.201.3.504.41.907l5.883 16.153c.054.161.143.316.267.464.123.148.266.262.43.342.164.081.342.122.533.122h17.72c.272 0 .525-.081.758-.242.232-.162.39-.363.471-.605l6.276-13.258c.137-.43.075-.827-.185-1.19zM32.428 18.5H16.637L12.453 7.822H37.72L32.428 18.5zm-2.365 3.98a3.19 3.19 0 00-2.318.947c-.643.632-.964 1.392-.964 2.279s.322 1.646.964 2.278a3.187 3.187 0 002.317.947c.903 0 1.675-.315 2.318-.947.642-.632.964-1.391.964-2.278s-.322-1.647-.964-2.279a3.187 3.187 0 00-2.318-.947zm-11.813 0c-.602 0-1.155.148-1.661.443a3.279 3.279 0 00-1.19 1.17 3.102 3.102 0 00-.43 1.613c0 .887.321 1.646.964 2.278a3.187 3.187 0 002.317.947c.902 0 1.675-.315 2.317-.947.643-.632.964-1.391.964-2.278 0-.215-.02-.43-.061-.645a2.838 2.838 0 00-.492-1.15 3.515 3.515 0 00-.903-.887 2.958 2.958 0 00-1.169-.484 3.614 3.614 0 00-.656-.06z"/></svg><svg viewBox="0 0 18 17" id="download" xmlns="http://www.w3.org/2000/svg"><path d="M13.959 6.375h-2.834v-4.25h-4.25v4.25H4.042L9 12.042l4.959-5.667zM3.334 13.458h11.333v1.417H3.333v-1.417z"/></svg><svg viewBox="0 0 18 15" id="email-form" xmlns="http://www.w3.org/2000/svg"><path d="M3.25.313A2.875 2.875 0 00.375 3.187v.29L9 8.12l8.625-4.643v-.29A2.875 2.875 0 0014.75.312H3.25z"/><path d="M17.625 5.11L9.341 9.57a.719.719 0 01-.682 0L.375 5.11v6.702a2.875 2.875 0 002.875 2.875h11.5a2.875 2.875 0 002.875-2.875V5.11z"/></svg><svg viewBox="0 0 502.664 502.664" id="icon" xmlns="http://www.w3.org/2000/svg"><path d="M153.821 358.226L0 274.337v-46.463l153.821-83.414v54.574L46.636 250.523l107.185 53.431v54.272zm26.273 29.358L282.103 115.08h32.227L212.084 387.584h-31.99zm168.749-29.358v-54.272l107.164-52.999-107.164-52.59v-53.927l153.821 83.522v46.183l-153.821 84.083z"/></svg><svg viewBox="0 0 25 25" id="link-g" xmlns="http://www.w3.org/2000/svg"><path d="M6 15.5a3.478 3.478 0 002.357-.93l6.26 3.577a3.52 3.52 0 101.026-1.717l-6.26-3.577c.066-.25.102-.509.108-.768l6.15-3.515A3.49 3.49 0 1014.5 6c.004.288.043.575.117.853L8.933 10.1A3.5 3.5 0 106 15.5z"/></svg><svg viewBox="0 0 50 50" id="telegram" xmlns="http://www.w3.org/2000/svg"><path d="M44.377 5.986c-.487.022-.961.157-1.389.328-.423.17-2.86 1.21-6.457 2.748a20314.52 20314.52 0 00-12.91 5.528c-9.272 3.972-18.383 7.88-18.383 7.88l.067-.025s-.55.184-1.108.573a3.078 3.078 0 00-.824.81 2.145 2.145 0 00-.357 1.432c.237 1.925 2.232 2.47 2.232 2.47l.008.004 8.902 3.047c.227.757 2.7 9.012 3.244 10.76.3.966.582 1.524.875 1.904.147.19.301.338.471.446.068.042.139.075.209.103h.004c.009.004.017.004.025.008l-.023-.006c.016.007.032.018.049.024.031.01.05.01.092.02 1.02.355 1.863-.306 1.863-.306l.035-.027 5.469-5.072 8.875 6.92.111.05c1.553.69 2.958.305 3.736-.328s1.084-1.449 1.084-1.449l.034-.086 6.521-33.99c.167-.76.19-1.418.033-2.012-.157-.594-.54-1.11-1.02-1.396a2.588 2.588 0 00-1.468-.358zm.053 2.034c.197-.01.344.013.39.04.047.028.067.024.112.192.044.167.068.52-.053 1.072l-.004.012-6.484 33.793c-.016.034-.15.347-.46.598-.314.256-.664.456-1.593.066l-9.705-7.568-.274-.215-.005.006-2.903-2.178 16.31-19.19A1 1 0 0038.976 13a1 1 0 00-.53.168L14.844 28.902 5.928 25.85s-.886-.493-.928-.836c-.002-.02-.013-.002.033-.07.046-.07.162-.185.307-.286.29-.202.62-.324.62-.324l.034-.012.033-.013s9.112-3.91 18.383-7.881c4.636-1.986 9.312-3.988 12.908-5.526 3.596-1.537 6.194-2.644 6.414-2.732.25-.1.5-.141.698-.15zM33.613 18.793L21.244 33.346l-.006.006a1 1 0 00-.054.072 1 1 0 00-.055.084 1 1 0 00-.131.385 1 1 0 000 .007l-1.611 7.246c-.027-.078-.046-.106-.075-.199v-.002a2314.72 2314.72 0 01-3.167-10.506l17.468-11.646zM22.641 35.73l2.222 1.668-3.265 3.028 1.043-4.696z"/></svg><svg viewBox="0 0 20 20" id="whatsapp" xmlns="http://www.w3.org/2000/svg"><path d="M2.533 15.6l.447.224.138-.276-.185-.248-.4.3zm1.866 1.867l.3-.4-.247-.186-.276.139.223.447zM.667 19.333l-.448-.223a.5.5 0 00.671.67l-.223-.447zM6 6l-.278-.416A.5.5 0 005.5 6H6zm8 8v.5a.5.5 0 00.416-.223L14 14zM8.339 6.7l.493-.081-.493.082zm.186 1.116l-.493.083.493-.083zm-.576 1.329l.278.416-.278-.416zm5.35 2.516l.082-.493-.082.493zm-1.115-.186l-.083.493.083-.493zm-1.329.576l-.416-.278.416.278zM.167 10c0 2.213.731 4.256 1.966 5.9l.8-.6A8.792 8.792 0 011.167 10h-1zM10 .166C4.569.167.167 4.569.167 10h1A8.833 8.833 0 0110 1.167v-1zM19.833 10c0-5.43-4.402-9.833-9.833-9.833v1A8.833 8.833 0 0118.833 10h1zM10 19.833c5.43 0 9.833-4.402 9.833-9.833h-1A8.833 8.833 0 0110 18.833v1zm-5.901-1.966a9.792 9.792 0 005.9 1.966v-1a8.792 8.792 0 01-5.3-1.766l-.6.8zM.89 19.78l3.733-1.867-.447-.894-3.733 1.866.447.895zm1.196-4.404L.219 19.11l.895.447 1.866-3.733-.894-.447zM5.5 6v1.333h1V6h-1zm7.166 8.5H14v-1h-1.334v1zM5.5 7.333a7.167 7.167 0 007.166 7.167v-1A6.167 6.167 0 016.5 7.333h-1zm.777-.917l.284-.19-.554-.831-.285.19.555.831zm1.569.367l.186 1.116.986-.165-.186-1.115-.986.164zm-.174 1.946l-1.283.855.555.832 1.283-.855-.555-.832zm.36-.83a.833.833 0 01-.36.83l.555.832c.6-.4.91-1.115.791-1.827l-.986.165zm-1.47-1.672a.833.833 0 011.284.556l.986-.164a1.833 1.833 0 00-2.825-1.224l.554.832zm7.854 8.05l.19-.284-.833-.555-.19.285.833.554zm-1.035-3.11l-1.115-.185-.165.986 1.116.186.164-.986zm-2.942.606l-.855 1.283.832.555.855-1.283-.832-.555zm1.827-.791a1.833 1.833 0 00-1.827.791l.832.555a.833.833 0 01.83-.36l.165-.986zm2.34 3.011a1.833 1.833 0 00-1.225-2.825l-.164.986c.596.1.892.781.556 1.284l.832.555z"/></svg><svg viewBox="0 0 23 23" id="whatsapp-form" xmlns="http://www.w3.org/2000/svg"><path d="M19.678 3.357C17.548 1.18 14.602 0 11.594 0 5.202 0 .063 5.16.125 11.438c0 1.989.564 3.916 1.504 5.657L0 23l6.079-1.554c1.692.932 3.572 1.368 5.452 1.368 6.33 0 11.469-5.16 11.469-11.438 0-3.046-1.19-5.906-3.322-8.02zm-8.084 17.53c-1.692 0-3.384-.436-4.826-1.306l-.376-.186-3.634.932.94-3.543-.251-.373C.689 11.997 2.005 6.154 6.517 3.419c4.513-2.735 10.342-1.43 13.1 3.046 2.757 4.476 1.441 10.257-3.071 12.992-1.442.932-3.196 1.43-4.951 1.43zm5.515-6.9l-.69-.311s-1.002-.435-1.629-.746c-.063 0-.125-.062-.188-.062-.188 0-.313.062-.438.124 0 0-.063.062-.94 1.057a.345.345 0 01-.314.186h-.063a.477.477 0 01-.25-.124l-.314-.124c-.689-.311-1.316-.684-1.817-1.181-.125-.125-.313-.25-.439-.373-.438-.436-.877-.933-1.19-1.492l-.063-.125c-.063-.062-.063-.124-.126-.248 0-.125 0-.249.063-.311 0 0 .25-.311.439-.497.125-.125.188-.311.313-.436.126-.186.188-.435.126-.621-.063-.311-.815-1.99-1.003-2.362-.126-.187-.25-.249-.439-.311h-.69c-.125 0-.25.062-.375.062l-.063.062c-.125.062-.25.187-.376.249-.125.124-.188.248-.313.373a3.154 3.154 0 00-.69 1.927c0 .497.126.994.314 1.43l.062.186a10.358 10.358 0 002.32 3.17l.25.249c.188.186.376.31.501.497 1.316 1.12 2.82 1.927 4.512 2.362.188.063.44.063.627.125h.627c.313 0 .69-.125.94-.249.188-.124.313-.124.439-.248l.125-.125c.125-.124.25-.186.376-.31.125-.125.25-.25.313-.374.126-.248.188-.56.251-.87v-.435s-.063-.062-.188-.124z"/></svg></svg>